# Blender v3.0.1 OBJ File: ''
# www.blender.org
mtllib gravestone.mtl
o 넙스_커브
v -0.750000 0.000000 -0.833333
v -0.713685 0.000000 -0.847211
v -0.676216 0.000000 -0.860272
v -0.637662 0.000000 -0.872517
v -0.598094 0.000000 -0.883946
v -0.557581 0.000000 -0.894558
v -0.516193 0.000000 -0.904354
v -0.474001 0.000000 -0.913333
v -0.431074 0.000000 -0.921496
v -0.387482 0.000000 -0.928843
v -0.343295 0.000000 -0.935374
v -0.298584 0.000000 -0.941088
v -0.253418 0.000000 -0.945986
v -0.207867 0.000000 -0.950068
v -0.162001 0.000000 -0.953333
v -0.115891 0.000000 -0.955782
v -0.069605 0.000000 -0.957415
v -0.023214 0.000000 -0.958231
v 0.023211 0.000000 -0.958231
v 0.069602 0.000000 -0.957415
v 0.115887 0.000000 -0.955782
v 0.161998 0.000000 -0.953333
v 0.207864 0.000000 -0.950068
v 0.253415 0.000000 -0.945987
v 0.298581 0.000000 -0.941089
v 0.343292 0.000000 -0.935374
v 0.387479 0.000000 -0.928844
v 0.431070 0.000000 -0.921497
v 0.473997 0.000000 -0.913334
v 0.516190 0.000000 -0.904354
v 0.557578 0.000000 -0.894559
v 0.598091 0.000000 -0.883946
v 0.637659 0.000000 -0.872518
v 0.676213 0.000000 -0.860273
v 0.713682 0.000000 -0.847212
v 0.749997 0.000000 -0.833334
l 1 2
l 2 3
l 3 4
l 4 5
l 5 6
l 6 7
l 7 8
l 8 9
l 9 10
l 10 11
l 11 12
l 12 13
l 13 14
l 14 15
l 15 16
l 16 17
l 17 18
l 18 19
l 19 20
l 20 21
l 21 22
l 22 23
l 23 24
l 24 25
l 25 26
l 26 27
l 27 28
l 28 29
l 29 30
l 30 31
l 31 32
l 32 33
l 33 34
l 34 35
l 35 36
o 큐브
v -0.050000 0.000000 0.080000
v -0.050000 0.600000 0.080000
v -0.050000 0.000000 -0.080000
v -0.050000 0.600000 -0.080000
v 0.050000 0.000000 0.080000
v 0.050000 0.600000 0.080000
v 0.050000 0.000000 -0.080000
v 0.050000 0.600000 -0.080000
vt 0.375000 0.000000
vt 0.625000 0.000000
vt 0.625000 0.250000
vt 0.375000 0.250000
vt 0.625000 0.500000
vt 0.375000 0.500000
vt 0.625000 0.750000
vt 0.375000 0.750000
vt 0.625000 1.000000
vt 0.375000 1.000000
vt 0.125000 0.500000
vt 0.125000 0.750000
vt 0.875000 0.500000
vt 0.875000 0.750000
vn -1.0000 0.0000 0.0000
vn 0.0000 0.0000 -1.0000
vn 1.0000 0.0000 0.0000
vn 0.0000 0.0000 1.0000
vn 0.0000 -1.0000 0.0000
vn 0.0000 1.0000 0.0000
usemtl None
s off
f 37/1/1 38/2/1 40/3/1 39/4/1
f 39/4/2 40/3/2 44/5/2 43/6/2
f 43/6/3 44/5/3 42/7/3 41/8/3
f 41/8/4 42/7/4 38/9/4 37/10/4
f 39/11/5 43/6/5 41/8/5 37/12/5
f 44/5/6 40/13/6 38/14/6 42/7/6
o 큐브.001
v -0.051000 0.357406 -0.250000
v -0.051000 0.357406 0.250000
v -0.051000 0.477406 -0.250000
v -0.051000 0.477406 0.250000
v 0.009000 0.357406 -0.250000
v 0.009000 0.357406 0.250000
v 0.009000 0.477406 -0.250000
v 0.009000 0.477406 0.250000
vt 0.375000 0.000000
vt 0.625000 0.000000
vt 0.625000 0.250000
vt 0.375000 0.250000
vt 0.625000 0.500000
vt 0.375000 0.500000
vt 0.625000 0.750000
vt 0.375000 0.750000
vt 0.625000 1.000000
vt 0.375000 1.000000
vt 0.125000 0.500000
vt 0.125000 0.750000
vt 0.875000 0.500000
vt 0.875000 0.750000
vn -1.0000 0.0000 0.0000
vn 0.0000 1.0000 0.0000
vn 1.0000 0.0000 0.0000
vn 0.0000 -1.0000 -0.0000
vn 0.0000 0.0000 -1.0000
vn 0.0000 0.0000 1.0000
usemtl None
s off
f 45/15/7 46/16/7 48/17/7 47/18/7
f 47/18/8 48/17/8 52/19/8 51/20/8
f 51/20/9 52/19/9 50/21/9 49/22/9
f 49/22/10 50/21/10 46/23/10 45/24/10
f 47/25/11 51/20/11 49/22/11 45/26/11
f 52/19/12 48/27/12 46/28/12 50/21/12
