# Blender v3.0.1 OBJ File: ''
# www.blender.org
mtllib bulb.mtl
o Mball
v 0.066000 0.093106 -0.066000
v 0.066000 0.072000 -0.085347
v 0.085347 0.072000 -0.066000
v 0.066000 0.024000 -0.105687
v 0.105687 0.024000 -0.066000
v 0.066000 -0.024000 -0.105687
v 0.105687 -0.024000 -0.066000
v 0.110000 -0.024000 -0.058322
v 0.110000 0.024000 -0.058322
v 0.122662 -0.024000 -0.022000
v 0.122662 0.024000 -0.022000
v 0.110000 -0.063624 -0.022000
v 0.110000 -0.063624 0.022000
v 0.122662 -0.024000 0.022000
v 0.110000 -0.024000 0.058322
v 0.110000 0.024000 0.058322
v 0.122662 0.024000 0.022000
v 0.110000 0.063624 0.022000
v 0.110000 0.063624 -0.022000
v 0.105687 0.072000 0.022000
v 0.105687 0.072000 -0.022000
v 0.066000 0.115295 0.022000
v 0.066000 0.115295 -0.022000
v 0.058322 0.120000 0.022000
v 0.058322 0.120000 -0.022000
v 0.022000 0.133813 0.022000
v 0.022000 0.133813 -0.022000
v 0.022000 0.120000 0.058322
v -0.022000 0.133813 0.022000
v -0.022000 0.120000 0.058322
v -0.022000 0.115295 0.066000
v 0.022000 0.115295 0.066000
v 0.022000 0.072000 0.105687
v -0.022000 0.072000 0.105687
v -0.022000 0.063624 0.110000
v 0.022000 0.063624 0.110000
v 0.022000 0.024000 0.122662
v -0.022000 0.024000 0.122662
v -0.022000 -0.024000 0.122662
v 0.022000 -0.024000 0.122662
v -0.022000 -0.063624 0.110000
v 0.022000 -0.063624 0.110000
v 0.022000 -0.072000 0.105687
v -0.022000 -0.072000 0.105687
v -0.022000 -0.115295 0.066000
v 0.022000 -0.115295 0.066000
v 0.022000 -0.120000 0.058322
v -0.022000 -0.120000 0.058322
v -0.022000 -0.133813 0.022000
v 0.022000 -0.133813 0.022000
v 0.022000 -0.133813 -0.022000
v -0.022000 -0.133813 -0.022000
v 0.022000 -0.120000 -0.058322
v -0.022000 -0.120000 -0.058322
v -0.022000 -0.115295 -0.066000
v 0.022000 -0.115295 -0.066000
v 0.022000 -0.072000 -0.105687
v -0.022000 -0.072000 -0.105687
v -0.022000 -0.063624 -0.110000
v 0.022000 -0.063624 -0.110000
v 0.022000 -0.024000 -0.122662
v -0.022000 -0.024000 -0.122662
v 0.022000 0.024000 -0.122662
v -0.022000 0.024000 -0.122662
v -0.022000 0.063624 -0.110000
v 0.022000 0.063624 -0.110000
v 0.022000 0.072000 -0.105687
v -0.022000 0.072000 -0.105687
v -0.022000 0.115295 -0.066000
v 0.022000 0.115295 -0.066000
v 0.022000 0.120000 -0.058322
v -0.022000 0.120000 -0.058322
v -0.022000 0.133813 -0.022000
v -0.058322 0.120000 -0.022000
v -0.058322 0.120000 0.022000
v -0.066000 0.115295 0.022000
v -0.066000 0.115295 -0.022000
v -0.105687 0.072000 0.022000
v -0.105687 0.072000 -0.022000
v -0.110000 0.063624 0.022000
v -0.110000 0.063624 -0.022000
v -0.110000 0.024000 -0.058322
v -0.105687 0.024000 -0.066000
v -0.085347 0.072000 -0.066000
v -0.110000 -0.024000 -0.058322
v -0.105687 -0.024000 -0.066000
v -0.110000 -0.063624 -0.022000
v -0.105687 -0.072000 -0.022000
v -0.085347 -0.072000 -0.066000
v -0.066000 -0.072000 -0.085347
v -0.066000 -0.024000 -0.105687
v -0.066000 -0.093106 -0.066000
v -0.110000 -0.063624 0.022000
v -0.105687 -0.072000 0.022000
v -0.066000 -0.115295 0.022000
v -0.066000 -0.115295 -0.022000
v -0.066000 -0.093106 0.066000
v -0.085347 -0.072000 0.066000
v -0.058322 -0.120000 0.022000
v -0.058322 -0.120000 -0.022000
v -0.110000 -0.024000 0.058322
v -0.105687 -0.024000 0.066000
v -0.110000 0.024000 0.058322
v -0.105687 0.024000 0.066000
v -0.066000 -0.024000 0.105687
v -0.066000 0.024000 0.105687
v -0.058322 0.024000 0.110000
v -0.058322 -0.024000 0.110000
v -0.122662 -0.024000 0.022000
v -0.122662 0.024000 0.022000
v -0.122662 -0.024000 -0.022000
v -0.122662 0.024000 -0.022000
v -0.066000 -0.072000 0.085347
v -0.066000 0.024000 -0.105687
v -0.058322 -0.024000 -0.110000
v -0.058322 0.024000 -0.110000
v -0.066000 0.072000 -0.085347
v -0.066000 0.093106 -0.066000
v -0.085347 0.072000 0.066000
v -0.066000 0.093106 0.066000
v -0.066000 0.072000 0.085347
v 0.058322 -0.024000 -0.110000
v 0.058322 0.024000 -0.110000
v 0.066000 -0.093106 -0.066000
v 0.066000 -0.072000 -0.085347
v 0.085347 -0.072000 -0.066000
v 0.066000 -0.115295 -0.022000
v 0.105687 -0.072000 -0.022000
v 0.066000 -0.115295 0.022000
v 0.105687 -0.072000 0.022000
v 0.066000 -0.093106 0.066000
v 0.085347 -0.072000 0.066000
v 0.066000 -0.072000 0.085347
v 0.066000 -0.024000 0.105687
v 0.105687 -0.024000 0.066000
v 0.066000 0.024000 0.105687
v 0.105687 0.024000 0.066000
v 0.066000 0.072000 0.085347
v 0.085347 0.072000 0.066000
v 0.066000 0.093106 0.066000
v 0.058322 -0.024000 0.110000
v 0.058322 0.024000 0.110000
v 0.058322 -0.120000 -0.022000
v 0.058322 -0.120000 0.022000
vn 0.7244 0.4677 -0.5064
vn 0.5075 0.4686 -0.7231
vn 0.5183 0.6803 -0.5183
vn 0.7956 0.1746 -0.5800
vn 0.5760 0.1677 -0.8000
vn 0.8000 -0.1677 -0.5760
vn 0.5800 -0.1746 -0.7956
vn 0.8879 0.1900 -0.4189
vn 0.8985 -0.1727 -0.4036
vn 0.9752 0.1498 -0.1626
vn 0.9752 -0.1498 -0.1626
vn 0.9043 -0.3827 -0.1892
vn 0.9752 -0.1498 0.1626
vn 0.9076 -0.3731 0.1924
vn 0.8879 -0.1900 0.4189
vn 0.9752 0.1498 0.1626
vn 0.8985 0.1727 0.4036
vn 0.9043 0.3827 0.1892
vn 0.9076 0.3731 -0.1924
vn 0.8204 0.5405 -0.1864
vn 0.8122 0.5549 0.1797
vn 0.6007 0.7758 -0.1930
vn 0.6064 0.7699 0.1987
vn 0.4289 0.8806 -0.2013
vn 0.4464 0.8679 0.2176
vn 0.1747 0.9690 -0.1747
vn 0.1747 0.9690 0.1747
vn 0.2176 0.8679 0.4464
vn -0.1974 0.8766 0.4389
vn -0.1747 0.9690 0.1747
vn 0.1987 0.7699 0.6064
vn -0.1848 0.7656 0.6162
vn -0.1864 0.5405 0.8204
vn 0.1864 0.5405 0.8204
vn 0.1924 0.3731 0.9076
vn -0.1924 0.3731 0.9076
vn -0.1626 0.1498 0.9752
vn 0.1626 0.1498 0.9752
vn 0.1626 -0.1498 0.9752
vn -0.1626 -0.1498 0.9752
vn 0.1892 -0.3827 0.9043
vn -0.1892 -0.3827 0.9043
vn -0.1797 -0.5549 0.8122
vn 0.1797 -0.5549 0.8122
vn 0.1990 -0.7696 0.6067
vn -0.1917 -0.7743 0.6031
vn -0.1989 -0.8800 0.4313
vn 0.2176 -0.8679 0.4464
vn 0.1747 -0.9690 0.1747
vn -0.1747 -0.9690 0.1747
vn -0.1747 -0.9690 -0.1747
vn 0.1747 -0.9690 -0.1747
vn -0.2176 -0.8679 -0.4464
vn 0.2176 -0.8679 -0.4464
vn 0.1987 -0.7699 -0.6064
vn -0.1987 -0.7699 -0.6064
vn -0.1854 -0.5428 -0.8191
vn 0.1864 -0.5405 -0.8204
vn 0.1924 -0.3731 -0.9076
vn -0.1902 -0.3754 -0.9071
vn -0.1626 -0.1498 -0.9752
vn 0.1626 -0.1498 -0.9752
vn -0.1626 0.1498 -0.9752
vn 0.1626 0.1498 -0.9752
vn 0.1892 0.3827 -0.9043
vn -0.2099 0.3902 -0.8965
vn -0.1919 0.5456 -0.8158
vn 0.1797 0.5549 -0.8122
vn 0.1990 0.7696 -0.6067
vn -0.1930 0.7758 -0.6007
vn -0.2013 0.8806 -0.4289
vn 0.2176 0.8679 -0.4464
vn -0.1747 0.9690 -0.1747
vn -0.4464 0.8679 -0.2176
vn -0.4313 0.8800 0.1989
vn -0.6067 0.7696 -0.1990
vn -0.6031 0.7743 0.1917
vn -0.8122 0.5549 -0.1797
vn -0.8204 0.5405 0.1864
vn -0.9043 0.3827 -0.1892
vn -0.9076 0.3731 0.1924
vn -0.7231 0.4686 -0.5075
vn -0.8000 0.1677 -0.5760
vn -0.8985 0.1727 -0.4036
vn -0.7956 -0.1746 -0.5800
vn -0.8879 -0.1900 -0.4189
vn -0.7244 -0.4677 -0.5064
vn -0.8204 -0.5405 -0.1864
vn -0.9076 -0.3731 -0.1924
vn -0.5886 -0.1621 -0.7920
vn -0.5071 -0.4688 -0.7232
vn -0.5166 -0.6827 -0.5166
vn -0.8122 -0.5549 0.1797
vn -0.9043 -0.3827 0.1892
vn -0.6064 -0.7699 -0.1987
vn -0.6162 -0.7656 0.1848
vn -0.7231 -0.4686 0.5075
vn -0.5191 -0.6788 0.5193
vn -0.4464 -0.8679 -0.2176
vn -0.4389 -0.8766 0.1974
vn -0.8000 -0.1677 0.5760
vn -0.8985 -0.1727 0.4036
vn -0.7956 0.1746 0.5800
vn -0.8879 0.1900 0.4189
vn -0.5800 0.1746 0.7956
vn -0.5760 -0.1677 0.8000
vn -0.4036 -0.1727 0.8985
vn -0.4189 0.1900 0.8879
vn -0.9752 0.1498 0.1626
vn -0.9752 -0.1498 0.1626
vn -0.9752 0.1498 -0.1626
vn -0.9752 -0.1498 -0.1626
vn -0.5075 -0.4686 0.7231
vn -0.5798 0.1744 -0.7959
vn -0.4189 0.1900 -0.8879
vn -0.4116 -0.1713 -0.8951
vn -0.5046 0.4661 -0.7267
vn -0.5183 0.6803 -0.5183
vn -0.7244 0.4677 0.5064
vn -0.5193 0.6788 0.5191
vn -0.5064 0.4677 0.7244
vn 0.4036 0.1727 -0.8985
vn 0.4189 -0.1900 -0.8879
vn 0.5064 -0.4677 -0.7244
vn 0.5166 -0.6827 -0.5166
vn 0.7231 -0.4686 -0.5075
vn 0.8122 -0.5549 -0.1797
vn 0.6064 -0.7699 -0.1987
vn 0.8204 -0.5405 0.1864
vn 0.6007 -0.7758 0.1930
vn 0.7244 -0.4677 0.5064
vn 0.5183 -0.6803 0.5183
vn 0.5075 -0.4686 0.7231
vn 0.7956 -0.1746 0.5800
vn 0.5760 -0.1677 0.8000
vn 0.8000 0.1677 0.5760
vn 0.5800 0.1746 0.7956
vn 0.7231 0.4686 0.5075
vn 0.5064 0.4677 0.7244
vn 0.5166 0.6827 0.5166
vn 0.4189 0.1900 0.8879
vn 0.4036 -0.1727 0.8985
vn 0.4289 -0.8806 0.2013
vn 0.4464 -0.8679 -0.2176
usemtl None
s 1
f 3//1 2//2 1//3
f 2//2 3//1 5//4 4//5
f 4//5 5//4 7//6 6//7
f 7//6 5//4 9//8 8//9
f 9//8 11//10 10//11 8//9
f 8//9 10//11 12//12
f 12//12 10//11 14//13 13//14
f 14//13 15//15 13//14
f 14//13 17//16 16//17 15//15
f 16//17 17//16 18//18
f 17//16 11//10 19//19 18//18
f 19//19 21//20 20//21 18//18
f 20//21 21//20 23//22 22//23
f 23//22 25//24 24//25 22//23
f 24//25 25//24 27//26 26//27
f 28//28 24//25 26//27
f 30//29 28//28 26//27 29//30
f 32//31 28//28 30//29 31//32
f 34//33 33//34 32//31 31//32
f 36//35 33//34 34//33 35//36
f 38//37 37//38 36//35 35//36
f 40//39 37//38 38//37 39//40
f 42//41 40//39 39//40 41//42
f 44//43 43//44 42//41 41//42
f 46//45 43//44 44//43 45//46
f 48//47 47//48 46//45 45//46
f 50//49 47//48 48//47 49//50
f 52//51 51//52 50//49 49//50
f 54//53 53//54 51//52 52//51
f 56//55 53//54 54//53 55//56
f 58//57 57//58 56//55 55//56
f 60//59 57//58 58//57 59//60
f 62//61 61//62 60//59 59//60
f 64//63 63//64 61//62 62//61
f 66//65 63//64 64//63 65//66
f 68//67 67//68 66//65 65//66
f 70//69 67//68 68//67 69//70
f 72//71 71//72 70//69 69//70
f 27//26 71//72 72//71 73//73
f 72//71 74//74 73//73
f 73//73 74//74 75//75 29//30
f 75//75 74//74 77//76 76//77
f 77//76 79//78 78//79 76//77
f 78//79 79//78 81//80 80//81
f 84//82 83//83 82//84 81//80
f 79//78 84//82 81//80
f 82//84 83//83 86//85 85//86
f 86//85 89//87 88//88 87//89
f 85//86 86//85 87//89
f 89//87 86//85 91//90 90//91
f 89//87 90//91 92//92
f 87//89 88//88 94//93 93//94
f 94//93 88//88 96//95 95//96
f 98//97 94//93 95//96 97//98
f 96//95 100//99 99//100 95//96
f 98//97 102//101 101//102 93//94
f 94//93 98//97 93//94
f 102//101 104//103 103//104 101//102
f 106//105 104//103 102//101 105//106
f 108//107 107//108 106//105 105//106
f 103//104 110//109 109//110 101//102
f 110//109 103//104 80//81
f 110//109 112//111 111//112 109//110
f 105//106 102//101 98//97 113//113
f 101//102 109//110 93//94
f 109//110 111//112 87//89 93//94
f 111//112 85//86 87//89
f 86//85 83//83 114//114 91//90
f 114//114 116//115 115//116 91//90
f 111//112 112//111 82//84 85//86
f 83//83 84//82 117//117 114//114
f 117//117 84//82 118//118
f 104//103 119//119 78//79 80//81
f 103//104 104//103 80//81
f 81//80 112//111 110//109 80//81
f 118//118 84//82 79//78 77//76
f 76//77 78//79 119//119 120//120
f 119//119 121//121 120//120
f 64//63 116//115 65//66
f 63//64 123//122 122//123 61//62
f 115//116 116//115 64//63 62//61
f 61//62 122//123 60//59
f 115//116 62//61 59//60
f 57//58 125//124 124//125 56//55
f 125//124 126//126 124//125
f 124//125 126//126 128//127 127//128
f 127//128 128//127 130//129 129//130
f 129//130 130//129 132//131 131//132
f 132//131 133//133 131//132
f 132//131 135//134 134//135 133//133
f 135//134 137//136 136//137 134//135
f 137//136 139//138 138//139 136//137
f 138//139 139//138 140//140
f 136//137 142//141 141//142 134//135
f 144//143 143//144 127//128 129//130
f 90//91 58//57 55//56 92//92
f 127//128 143//144 53//54 56//55
f 124//125 127//128 56//55
f 55//56 54//53 100//99 96//95
f 92//92 55//56 96//95
f 100//99 54//53 52//51
f 51//52 143//144 144//143 50//49
f 99//100 100//99 52//51 49//50
f 144//143 47//48 50//49
f 48//47 99//100 49//50
f 144//143 129//130 131//132 46//45
f 47//48 144//143 46//45
f 99//100 48//47 45//46 97//98
f 95//96 99//100 97//98
f 45//46 44//43 113//113 97//98
f 133//133 134//135 141//142 42//41
f 43//44 133//133 42//41
f 41//42 108//107 105//106 113//113
f 44//43 41//42 113//113
f 141//142 40//39 42//41
f 39//40 108//107 41//42
f 141//142 142//141 37//38 40//39
f 38//37 107//108 108//107 39//40
f 107//108 38//37 35//36
f 136//137 138//139 33//34 36//35
f 142//141 136//137 36//35
f 35//36 34//33 121//121 106//105
f 107//108 35//36 106//105
f 33//34 138//139 140//140 32//31
f 121//121 34//33 31//32 120//120
f 75//75 30//29 29//30
f 26//27 27//26 73//73 29//30
f 25//24 23//22 1//3 70//69
f 71//72 25//24 70//69
f 16//17 137//136 135//134 15//15
f 130//129 128//127 12//12 13//14
f 10//11 11//10 17//16 14//13
f 122//123 123//122 4//5 6//7
f 5//4 3//1 21//20 19//19
f 9//8 5//4 19//19
f 2//2 4//5 123//122 66//65
f 67//68 2//2 66//65
f 6//7 7//6 126//126 125//124
f 21//20 3//1 1//3 23//22
f 11//10 9//8 19//19
f 126//126 7//6 8//9 12//12
f 128//127 126//126 12//12
f 139//138 20//21 22//23 140//140
f 139//138 137//136 16//17 18//18
f 20//21 139//138 18//18
f 135//134 132//131 130//129 13//14
f 15//15 135//134 13//14
f 1//3 2//2 67//68 70//69
f 123//122 63//64 66//65
f 6//7 125//124 57//58 60//59
f 122//123 6//7 60//59
f 25//24 71//72 27//26
f 53//54 143//144 51//52
f 22//23 24//25 28//28 32//31
f 140//140 22//23 32//31
f 37//38 142//141 36//35
f 131//132 133//133 43//44 46//45
f 69//70 68//67 117//117 118//118
f 68//67 65//66 116//115 114//114
f 117//117 68//67 114//114
f 115//116 59//60 58//57 90//91
f 91//90 115//116 90//91
f 72//71 69//70 118//118 77//76
f 74//74 72//71 77//76
f 82//84 112//111 81//80
f 88//88 89//87 92//92 96//95
f 30//29 75//75 76//77 120//120
f 31//32 30//29 120//120
f 121//121 119//119 104//103 106//105
f 113//113 98//97 97//98
